<?xml version="1.0" encoding="utf-8"?>
<!-- Generator: Adobe Illustrator 27.5.0, SVG Export Plug-In . SVG Version: 6.00 Build 0)  -->
<svg version="1.1" xmlns="http://www.w3.org/2000/svg" xmlns:xlink="http://www.w3.org/1999/xlink" x="0px" y="0px"
	 viewBox="0 0 500 500" style="enable-background:new 0 0 500 500;" xml:space="preserve">
<g id="BACKGROUND">
</g>
<g id="OBJECTS">
	<g>
		<defs>
			<circle id="SVGID_1_" cx="250" cy="250" r="208.283"/>
		</defs>
		<clipPath id="SVGID_00000177459535144103690370000016321643401540308356_">
			<use xlink:href="#SVGID_1_"  style="overflow:visible;"/>
		</clipPath>
		
			<linearGradient id="SVGID_00000145041961137509309770000003705600901984454331_" gradientUnits="userSpaceOnUse" x1="250" y1="458.2835" x2="250" y2="41.7165">
			<stop  offset="0" style="stop-color:#FFFFFF"/>
			<stop  offset="0.29" style="stop-color:#FFFDFC"/>
			<stop  offset="0.4662" style="stop-color:#FEF8F4"/>
			<stop  offset="0.6119" style="stop-color:#FEEFE6"/>
			<stop  offset="0.7412" style="stop-color:#FDE3D1"/>
			<stop  offset="0.8594" style="stop-color:#FBD2B7"/>
			<stop  offset="0.9681" style="stop-color:#FABF97"/>
			<stop  offset="1" style="stop-color:#F9B88C"/>
		</linearGradient>
		
			<circle style="clip-path:url(#SVGID_00000177459535144103690370000016321643401540308356_);fill:url(#SVGID_00000145041961137509309770000003705600901984454331_);" cx="250" cy="250" r="208.283"/>
		<path style="opacity:0.58;clip-path:url(#SVGID_00000177459535144103690370000016321643401540308356_);fill:#FFFFFF;" d="
			M265.002,84.762h-88.029c3.135-2.203,5.199-5.839,5.199-9.94c0-6.682-5.467-12.148-12.148-12.148H-37.601
			c-6.682,0-12.148,5.467-12.148,12.148c0,6.682,5.467,12.148,12.148,12.148h88.029c-3.135,2.203-5.199,5.839-5.199,9.939l0,0
			c0,6.682,5.467,12.148,12.148,12.148H-71.837c-6.682,0-12.148,5.467-12.148,12.148c0,6.682,5.467,12.148,12.148,12.148h207.626
			c6.682,0,12.148-5.467,12.148-12.148c0-6.682-5.467-12.148-12.148-12.148h129.214c6.682,0,12.148-5.467,12.148-12.148l0,0
			C277.15,90.229,271.684,84.762,265.002,84.762z"/>
		<path style="opacity:0.58;clip-path:url(#SVGID_00000177459535144103690370000016321643401540308356_);fill:#FFFFFF;" d="
			M466.397,133.674h-42.244c1.504-1.057,2.495-2.802,2.495-4.77c0-3.207-2.623-5.83-5.83-5.83H321.18c-3.206,0-5.83,2.623-5.83,5.83
			c0,3.206,2.624,5.83,5.83,5.83h42.244c-1.504,1.057-2.495,2.802-2.495,4.77l0,0c0,3.206,2.624,5.83,5.83,5.83H304.75
			c-3.206,0-5.83,2.623-5.83,5.83c0,3.206,2.624,5.83,5.83,5.83h99.638c3.207,0,5.83-2.623,5.83-5.83c0-3.206-2.623-5.83-5.83-5.83
			h62.009c3.206,0,5.83-2.624,5.83-5.83l0,0C472.227,136.298,469.604,133.674,466.397,133.674z"/>
		<polygon style="opacity:0.45;clip-path:url(#SVGID_00000177459535144103690370000016321643401540308356_);fill:#F49231;" points="
			7.226,329.327 7.226,218.964 93.368,218.964 93.368,265.055 175.093,265.055 175.093,223.382 261.236,223.382 261.236,243.261 
			300.994,243.261 300.994,194.081 305.412,194.081 305.412,243.261 316.456,243.261 316.456,194.081 320.873,194.081 
			320.873,243.261 331.917,243.261 331.917,265.055 389.345,265.055 389.345,196.29 475.488,196.29 475.488,329.327 		"/>
		<path style="clip-path:url(#SVGID_00000177459535144103690370000016321643401540308356_);fill:#F49231;" d="M57.17,328.835
			C88.25,404.776,162.87,458.284,250,458.284s161.75-53.507,192.83-129.449H57.17z"/>
		<path style="opacity:0.28;clip-path:url(#SVGID_00000177459535144103690370000016321643401540308356_);fill:#82450F;" d="
			M335.869,398.582c-21.73-3.421-43.016-7.6-64.737-9.321c-19.171-1.52-38.663-0.947-57.851,0.085
			c-32.267,1.734-65.533,6.359-93.345,23.331c35.639,28.537,80.855,45.608,130.064,45.608c53.771,0,102.773-20.385,139.722-53.84
			C371.677,403.943,353.674,401.385,335.869,398.582z"/>
		
			<rect x="182.928" y="215.593" transform="matrix(-1.836970e-16 1 -1 -1.836970e-16 501.2293 122.1202)" style="clip-path:url(#SVGID_00000177459535144103690370000016321643401540308356_);fill:#223147;" width="13.253" height="192.164"/>
		<g style="clip-path:url(#SVGID_00000177459535144103690370000016321643401540308356_);">
			<g>
				<path style="fill:#155897;" d="M270.19,105.534v19.825h-56.492v-23.994H199.84v23.994H97.33v2.01v10.05v36.863H78.58v11.377
					h18.75v126.63h12.06v-78.39h90.45v78.39h13.858v-78.39h56.492v78.39h13.238V105.534H270.19z M270.19,137.419v36.863h-56.492
					v-36.863H270.19z M109.39,137.419h90.45v36.863h-90.45V137.419z M109.39,221.839v-36.18h90.45v36.18H109.39z M213.698,221.839
					v-36.18h56.492v36.18H213.698z"/>
				<polygon style="opacity:0.31;fill:#223147;" points="109.902,221.839 109.39,221.839 109.39,185.659 109.902,185.659 
					109.902,174.282 109.39,174.282 109.39,137.419 109.902,137.419 109.902,125.359 102.581,125.359 102.581,312.289 
					109.39,312.289 109.39,233.899 109.902,233.899 				"/>
				<polygon style="opacity:0.31;fill:#223147;" points="214.333,221.839 213.698,221.839 213.698,185.659 214.333,185.659 
					214.333,174.282 213.698,174.282 213.698,137.419 214.333,137.419 214.333,125.359 213.698,125.359 213.698,101.364 
					207.012,101.364 207.012,312.289 213.698,312.289 213.698,233.899 214.333,233.899 				"/>
				<rect x="279.39" y="105.534" style="opacity:0.31;fill:#223147;" width="4.038" height="206.755"/>
				<rect x="122.785" y="131.925" style="fill:#155897;" width="5.17" height="46.529"/>
				<rect x="145.532" y="131.925" style="fill:#155897;" width="5.17" height="46.529"/>
				<rect x="125.37" y="155.189" style="fill:#155897;" width="23.264" height="5.687"/>
				<rect x="171.381" y="180.521" style="fill:#155897;" width="5.17" height="44.461"/>
				<rect x="187.925" y="180.521" style="fill:#155897;" width="5.17" height="44.461"/>
				<rect x="247.378" y="131.408" style="fill:#155897;" width="5.17" height="44.461"/>
			</g>
			<g>
				<polygon style="fill:#223147;" points="131.057,125.183 131.057,93.668 127.955,94.943 127.955,125.183 				"/>
				<rect x="178.619" y="94.858" style="fill:#223147;" width="3.102" height="30.325"/>
				<g>
					<defs>
						<rect id="SVGID_00000134939698869641579820000010524920255359409836_" x="120.26" y="92.605" width="70.681" height="9.939"/>
					</defs>
					<clipPath id="SVGID_00000059267611776149815310000016638656774500187806_">
						<use xlink:href="#SVGID_00000134939698869641579820000010524920255359409836_"  style="overflow:visible;"/>
					</clipPath>
					
						<rect x="120.26" y="92.605" style="clip-path:url(#SVGID_00000059267611776149815310000016638656774500187806_);fill:#F49231;" width="70.681" height="9.939"/>
					<g style="clip-path:url(#SVGID_00000059267611776149815310000016638656774500187806_);">
						
							<rect x="114.513" y="95.663" transform="matrix(0.6001 -0.7999 0.7999 0.6001 -26.4489 140.6301)" style="fill:#FFFFFF;" width="25.849" height="2.215"/>
					</g>
					<g style="clip-path:url(#SVGID_00000059267611776149815310000016638656774500187806_);">
						
							<rect x="125.887" y="95.663" transform="matrix(0.6002 -0.7999 0.7999 0.6002 -21.9024 149.7238)" style="fill:#FFFFFF;" width="25.849" height="2.215"/>
					</g>
					<g style="clip-path:url(#SVGID_00000059267611776149815310000016638656774500187806_);">
						
							<rect x="137.261" y="95.663" transform="matrix(0.6002 -0.7999 0.7999 0.6002 -17.3548 158.8213)" style="fill:#FFFFFF;" width="25.849" height="2.215"/>
					</g>
					<g style="clip-path:url(#SVGID_00000059267611776149815310000016638656774500187806_);">
						
							<rect x="148.634" y="95.663" transform="matrix(0.6001 -0.7999 0.7999 0.6001 -12.8053 167.9235)" style="fill:#FFFFFF;" width="25.849" height="2.215"/>
					</g>
					<g style="clip-path:url(#SVGID_00000059267611776149815310000016638656774500187806_);">
						
							<rect x="160.008" y="95.663" transform="matrix(0.6002 -0.7999 0.7999 0.6002 -8.2597 177.0161)" style="fill:#FFFFFF;" width="25.849" height="2.215"/>
					</g>
					<g style="clip-path:url(#SVGID_00000059267611776149815310000016638656774500187806_);">
						
							<rect x="171.381" y="95.663" transform="matrix(0.6001 -0.7999 0.7999 0.6001 -3.7097 186.1188)" style="fill:#FFFFFF;" width="25.849" height="2.215"/>
					</g>
				</g>
				<g>
					<defs>
						
							<rect id="SVGID_00000153687352875366374780000014088113884117453185_" x="120.26" y="107.081" width="70.681" height="9.939"/>
					</defs>
					<clipPath id="SVGID_00000149342985837406023630000005944128193897355911_">
						<use xlink:href="#SVGID_00000153687352875366374780000014088113884117453185_"  style="overflow:visible;"/>
					</clipPath>
					
						<rect x="120.26" y="107.081" style="clip-path:url(#SVGID_00000149342985837406023630000005944128193897355911_);fill:#F49231;" width="70.681" height="9.939"/>
					<g style="clip-path:url(#SVGID_00000149342985837406023630000005944128193897355911_);">
						
							<rect x="114.513" y="110.138" transform="matrix(0.6001 -0.7999 0.7999 0.6001 -38.0277 146.4182)" style="fill:#FFFFFF;" width="25.849" height="2.215"/>
					</g>
					<g style="clip-path:url(#SVGID_00000149342985837406023630000005944128193897355911_);">
						
							<rect x="125.887" y="110.138" transform="matrix(0.6002 -0.7999 0.7999 0.6002 -33.481 155.5116)" style="fill:#FFFFFF;" width="25.849" height="2.215"/>
					</g>
					<g style="clip-path:url(#SVGID_00000149342985837406023630000005944128193897355911_);">
						
							<rect x="137.261" y="110.138" transform="matrix(0.6002 -0.7999 0.7999 0.6002 -28.9335 164.6091)" style="fill:#FFFFFF;" width="25.849" height="2.215"/>
					</g>
					<g style="clip-path:url(#SVGID_00000149342985837406023630000005944128193897355911_);">
						
							<rect x="148.634" y="110.138" transform="matrix(0.6001 -0.7999 0.7999 0.6001 -24.3842 173.7116)" style="fill:#FFFFFF;" width="25.849" height="2.215"/>
					</g>
					<g style="clip-path:url(#SVGID_00000149342985837406023630000005944128193897355911_);">
						
							<rect x="160.008" y="110.138" transform="matrix(0.6002 -0.7999 0.7999 0.6002 -19.8383 182.8039)" style="fill:#FFFFFF;" width="25.849" height="2.215"/>
					</g>
					<g style="clip-path:url(#SVGID_00000149342985837406023630000005944128193897355911_);">
						
							<rect x="171.381" y="110.138" transform="matrix(0.6001 -0.7999 0.7999 0.6001 -15.2886 191.9069)" style="fill:#FFFFFF;" width="25.849" height="2.215"/>
					</g>
				</g>
			</g>
		</g>
		<path style="clip-path:url(#SVGID_00000177459535144103690370000016321643401540308356_);fill:#00A58C;" d="M29.418,289.587
			c0,0,156.824-35.341,271.68,17.67c0,0,99.395-24.297,147.988,2.209l22.088,22.088H29.418
			C29.418,331.554,29.418,282.961,29.418,289.587z"/>
		<path style="opacity:0.31;clip-path:url(#SVGID_00000177459535144103690370000016321643401540308356_);fill:#223147;" d="
			M399.798,320.71c-29.643,1.884-59.505,5.4-89.176,2.029c-31.983-3.634-62.948-13.72-94.721-18.806
			c-32.235-5.16-65.795-5.612-98.334-3.746c-29.601,1.698-58.651,8.497-88.15,10.667c0,10.445,0,20.699,0,20.699h441.757
			l-9.461-9.461C441.597,318.618,420.586,319.389,399.798,320.71z"/>
		<g style="clip-path:url(#SVGID_00000177459535144103690370000016321643401540308356_);">
			<circle style="opacity:0.1;fill:#FFFFFF;" cx="326.083" cy="88.025" r="17.06"/>
			<circle style="opacity:0.1;fill:#FFFFFF;" cx="326.083" cy="88.025" r="19.906"/>
			<circle style="fill:#FEB847;" cx="326.083" cy="88.025" r="11.276"/>
		</g>
	</g>
	<g>
		<g>
			<rect x="64.746" y="249.117" style="fill:#223147;" width="3.926" height="37.954"/>
			<rect x="128.875" y="250.425" style="fill:#223147;" width="3.926" height="37.954"/>
			<g>
				<defs>
					
						<rect id="SVGID_00000028312523056608604210000007411336680708721280_" x="55.006" y="247.771" width="89.465" height="12.581"/>
				</defs>
				<clipPath id="SVGID_00000003818155523947881830000013568679107747025822_">
					<use xlink:href="#SVGID_00000028312523056608604210000007411336680708721280_"  style="overflow:visible;"/>
				</clipPath>
				
					<rect x="55.006" y="247.771" style="clip-path:url(#SVGID_00000003818155523947881830000013568679107747025822_);fill:#F49231;" width="89.465" height="12.581"/>
				<g style="clip-path:url(#SVGID_00000003818155523947881830000013568679107747025822_);">
					
						<rect x="47.732" y="251.641" transform="matrix(0.6002 -0.7999 0.7999 0.6002 -176.7753 152.4373)" style="fill:#FFFFFF;" width="32.719" height="2.803"/>
				</g>
				<g style="clip-path:url(#SVGID_00000003818155523947881830000013568679107747025822_);">
					
						<rect x="62.129" y="251.641" transform="matrix(0.6002 -0.7999 0.7999 0.6002 -171.0212 163.9581)" style="fill:#FFFFFF;" width="32.719" height="2.803"/>
				</g>
				<g style="clip-path:url(#SVGID_00000003818155523947881830000013568679107747025822_);">
					
						<rect x="76.525" y="251.641" transform="matrix(0.6002 -0.7999 0.7999 0.6002 -165.2634 175.4678)" style="fill:#FFFFFF;" width="32.718" height="2.803"/>
				</g>
				<g style="clip-path:url(#SVGID_00000003818155523947881830000013568679107747025822_);">
					
						<rect x="90.921" y="251.641" transform="matrix(0.6002 -0.7999 0.7999 0.6002 -159.5089 186.9886)" style="fill:#FFFFFF;" width="32.719" height="2.803"/>
				</g>
				<g style="clip-path:url(#SVGID_00000003818155523947881830000013568679107747025822_);">
					
						<rect x="105.318" y="251.641" transform="matrix(0.6002 -0.7999 0.7999 0.6002 -153.7514 198.4982)" style="fill:#FFFFFF;" width="32.719" height="2.803"/>
				</g>
				<g style="clip-path:url(#SVGID_00000003818155523947881830000013568679107747025822_);">
					
						<rect x="119.714" y="251.641" transform="matrix(0.6002 -0.7999 0.7999 0.6002 -147.9956 210.013)" style="fill:#FFFFFF;" width="32.719" height="2.803"/>
				</g>
			</g>
			<g>
				<defs>
					
						<rect id="SVGID_00000001664782997794105430000003134973568590742444_" x="55.006" y="266.094" width="89.465" height="12.581"/>
				</defs>
				<clipPath id="SVGID_00000101787358256581093830000003176029048813796515_">
					<use xlink:href="#SVGID_00000001664782997794105430000003134973568590742444_"  style="overflow:visible;"/>
				</clipPath>
				
					<rect x="55.006" y="266.094" style="clip-path:url(#SVGID_00000101787358256581093830000003176029048813796515_);fill:#F49231;" width="89.465" height="12.581"/>
				<g style="clip-path:url(#SVGID_00000101787358256581093830000003176029048813796515_);">
					
						<rect x="47.732" y="269.964" transform="matrix(0.6002 -0.7999 0.7999 0.6002 -191.4341 159.7703)" style="fill:#FFFFFF;" width="32.719" height="2.803"/>
				</g>
				<g style="clip-path:url(#SVGID_00000101787358256581093830000003176029048813796515_);">
					
						<rect x="62.129" y="269.964" transform="matrix(0.6001 -0.7999 0.7999 0.6001 -185.6799 171.2917)" style="fill:#FFFFFF;" width="32.719" height="2.803"/>
				</g>
				<g style="clip-path:url(#SVGID_00000101787358256581093830000003176029048813796515_);">
					
						<rect x="76.525" y="269.964" transform="matrix(0.6002 -0.7999 0.7999 0.6002 -179.9215 182.8013)" style="fill:#FFFFFF;" width="32.718" height="2.803"/>
				</g>
				<g style="clip-path:url(#SVGID_00000101787358256581093830000003176029048813796515_);">
					
						<rect x="90.921" y="269.964" transform="matrix(0.6001 -0.7999 0.7999 0.6001 -174.1669 194.3227)" style="fill:#FFFFFF;" width="32.719" height="2.803"/>
				</g>
				<g style="clip-path:url(#SVGID_00000101787358256581093830000003176029048813796515_);">
					
						<rect x="105.318" y="269.964" transform="matrix(0.6002 -0.7999 0.7999 0.6002 -168.4088 205.8322)" style="fill:#FFFFFF;" width="32.719" height="2.803"/>
				</g>
				<g style="clip-path:url(#SVGID_00000101787358256581093830000003176029048813796515_);">
					
						<rect x="119.714" y="269.964" transform="matrix(0.6002 -0.7999 0.7999 0.6002 -162.6527 217.3472)" style="fill:#FFFFFF;" width="32.719" height="2.803"/>
				</g>
			</g>
		</g>
		<g>
			<g>
				<path style="fill:#223147;" d="M153.616,330.448L153.616,330.448c-3.014-2.688-3.281-7.352-0.594-10.366l62.547-70.143
					c2.688-3.014,7.353-3.281,10.366-0.593l0,0c3.014,2.688,3.281,7.352,0.593,10.366l-62.547,70.143
					C161.295,332.869,156.63,333.136,153.616,330.448z"/>
				<path style="fill:#223147;" d="M218.64,246.24L218.64,246.24c3.497-2.019,8.01-0.81,10.029,2.687l46.99,81.389
					c2.019,3.497,0.81,8.01-2.687,10.03l0,0c-3.497,2.019-8.01,0.81-10.03-2.687l-46.99-81.389
					C213.933,252.772,215.143,248.259,218.64,246.24z"/>
				<g>
					<path style="fill:#223147;" d="M184.933,365.399H85.598c-4.7,0-8.545-3.845-8.545-8.545v-10.803c0-4.7,3.845-8.545,8.545-8.545
						h99.335c4.7,0,8.545,3.845,8.545,8.545v10.803C193.478,361.554,189.632,365.399,184.933,365.399z"/>
					<path style="opacity:0.26;fill:#63CFE8;" d="M176.195,360.548H96.559c-3.255,0-5.918-2.663-5.918-5.918v-5.191
						c0-3.255,2.663-5.918,5.918-5.918h79.636c3.255,0,5.918,2.663,5.918,5.918v5.191
						C182.113,357.885,179.45,360.548,176.195,360.548z"/>
					<rect x="100.095" y="291.42" style="fill:#FCE649;" width="70.34" height="44.872"/>
					
						<ellipse transform="matrix(0.9248 -0.3806 0.3806 0.9248 -125.9955 66.8886)" style="fill:#223147;" cx="106.149" cy="352.059" rx="9.096" ry="9.096"/>
					
						<ellipse transform="matrix(0.2307 -0.973 0.973 0.2307 -244.1059 395.3833)" style="fill:#223147;" cx="127.978" cy="352.059" rx="9.096" ry="9.096"/>
					
						<ellipse transform="matrix(0.2307 -0.973 0.973 0.2307 -227.3111 416.6245)" style="fill:#223147;" cx="149.808" cy="352.059" rx="9.096" ry="9.096"/>
					
						<ellipse transform="matrix(0.7071 -0.7071 0.7071 0.7071 -198.6714 224.4819)" style="fill:#223147;" cx="171.638" cy="352.059" rx="9.096" ry="9.096"/>
					<rect x="108.584" y="297.484" style="fill:#63CFE8;" width="26.681" height="16.372"/>
					<rect x="103.733" y="292.633" style="fill:none;stroke:#223147;stroke-miterlimit:10;" width="35.17" height="42.447"/>
					<path style="fill:#223147;" d="M171.042,291.42H97.063c-3.002,0-5.457-2.456-5.457-5.457l0,0c0-3.002,2.456-5.457,5.457-5.457
						h73.979c3.002,0,5.458,2.456,5.458,5.457l0,0C176.499,288.964,174.043,291.42,171.042,291.42z"/>
				</g>
				<path style="fill:#223147;" d="M215.604,367.732h58.026c7.264-13.179,4.723-31.402-7.395-44.691
					c-0.247-0.271-0.503-0.528-0.754-0.792l-1.087,0.992l-7.828-8.585l-8.84,8.061l7.828,8.585l-4.42,4.031l-7.828-8.585
					l-8.84,8.061l7.828,8.585l-4.42,4.031l-7.828-8.585l-8.84,8.061l7.828,8.585l-4.42,4.031l-7.828-8.585l-8.84,8.061l7.828,8.585
					L215.604,367.732z"/>
			</g>
			<g>
				<polygon style="fill:#155897;" points="258.9,314.832 222.312,253.854 171.925,310.932 171.213,310.303 222.459,252.251 
					259.714,314.344 				"/>
			</g>
			<g>
				<rect x="92.962" y="285.132" style="fill:#155897;" width="78.21" height="0.95"/>
			</g>
		</g>
	</g>
	<g>
		<defs>
			<path id="SVGID_00000008131888274392640460000005767405015494350258_" d="M458.283,250c0-115.032-93.252-208.284-208.283-208.284
				S41.717,134.968,41.717,250S134.968,458.284,250,458.284c63.223,0,119.86-28.175,158.059-72.646
				c14.702-2.553,46.625-9.121,48.554-18.282c1.964-9.327-7.206-34.394-11.296-44.876C453.696,299.906,458.283,275.49,458.283,250z"
				/>
		</defs>
		<clipPath id="SVGID_00000065072501869486110870000010809285183180891321_">
			<use xlink:href="#SVGID_00000008131888274392640460000005767405015494350258_"  style="overflow:visible;"/>
		</clipPath>
		<g style="clip-path:url(#SVGID_00000065072501869486110870000010809285183180891321_);">
			<g>
				<path style="fill:#915B36;" d="M255.644,465.033c0.415-2.1,0.641-4.263,0.641-6.478c0-19.241-16.382-34.839-36.589-34.839
					c-2.141,0-4.236,0.185-6.276,0.521c0.115-1.127,0.178-2.269,0.178-3.424c0-17.295-13.238-31.639-30.589-34.365
					c-1.311-18.107-17.142-32.41-36.491-32.41c-19.229,0-34.983,14.127-36.464,32.075c-1.047-0.086-2.104-0.139-3.174-0.139
					c-20.208,0-36.589,15.598-36.589,34.839c0,1.019,0.056,2.026,0.146,3.022c-18.849,1.411-33.686,16.411-33.686,34.72
					c0,2.215,0.226,4.378,0.641,6.478H255.644z"/>
				<path style="opacity:0.32;fill:#223147;" d="M193.728,459.933c0.23-1.255,0.356-2.549,0.356-3.873
					c0-11.504-9.083-20.829-20.286-20.829c-1.187,0-2.348,0.111-3.48,0.312c0.064-0.674,0.099-1.356,0.099-2.047
					c0-10.34-7.339-18.915-16.96-20.546c-0.727-10.825-9.504-19.377-20.232-19.377c-10.661,0-19.396,8.446-20.217,19.176
					c-0.581-0.051-1.166-0.083-1.76-0.083c-11.204,0-20.286,9.325-20.286,20.829c0,0.609,0.031,1.211,0.081,1.807
					c-10.45,0.843-18.677,9.811-18.677,20.758c0,1.324,0.126,2.617,0.356,3.873H193.728z"/>
			</g>
			<g>
				<path style="fill:#915B36;" d="M361.431,465.389c0.259-1.312,0.401-2.664,0.401-4.048c0-12.026-10.239-21.775-22.869-21.775
					c-1.338,0-2.647,0.116-3.923,0.326c0.072-0.704,0.111-1.418,0.111-2.14c0-10.809-8.274-19.775-19.119-21.479
					c-0.82-11.317-10.714-20.257-22.808-20.257c-12.019,0-21.865,8.83-22.791,20.047c-0.654-0.054-1.315-0.087-1.984-0.087
					c-12.63,0-22.869,9.749-22.869,21.775c0,0.637,0.035,1.266,0.091,1.889c-11.781,0.882-21.054,10.257-21.054,21.701
					c0,1.384,0.142,2.736,0.401,4.048H361.431z"/>
				<path style="opacity:0.32;fill:#223147;" d="M322.733,462.202c0.144-0.785,0.222-1.593,0.222-2.421
					c0-7.19-5.677-13.018-12.679-13.018c-0.742,0-1.468,0.069-2.175,0.195c0.04-0.421,0.062-0.848,0.062-1.28
					c0-6.463-4.587-11.823-10.6-12.841c-0.454-6.766-5.94-12.111-12.645-12.111c-6.664,0-12.123,5.279-12.636,11.986
					c-0.363-0.032-0.729-0.052-1.1-0.052c-7.003,0-12.679,5.829-12.679,13.019c0,0.381,0.019,0.757,0.051,1.129
					c-6.532,0.527-11.673,6.132-11.673,12.974c0,0.828,0.079,1.636,0.222,2.421H322.733z"/>
			</g>
		</g>
		<g style="clip-path:url(#SVGID_00000065072501869486110870000010809285183180891321_);">
			<path style="fill:#223147;" d="M316.536,389.329l-3.663,67.157l96.462,2.442c0,0-4.884-56.168-13.432-78.147L316.536,389.329z"/>
			<path style="fill:#82450F;" d="M317.589,265.965c0,0-58.232,61.382-43.793,77.803c14.439,16.421,30.265,5.345,61.659-48.062
				C335.455,295.705,329.063,259.9,317.589,265.965z"/>
			<path style="fill:#223147;" d="M335.927,250.904c0,0-21.826-6.574-48.837,28.509l36.313,37.118
				C323.403,316.53,368.94,273.552,335.927,250.904z"/>
			<path style="fill:#82450F;" d="M380.069,210.198l-2.194,39.641c0,0-5.118,14.768-42.41,2.332l2.194-24.095
				C337.659,228.075,376.413,202.425,380.069,210.198z"/>
			<path style="opacity:0.32;fill:#223147;" d="M365.091,237.724c5.236-8.324,7.408-18.365,7.794-28.338
				c-12.233,3.232-35.226,17.543-35.226,17.543l-1.653,17.084C346.59,248.985,357.839,249.253,365.091,237.724z"/>
			<path style="fill:#82450F;" d="M389.575,169.891c0-21.805-18.169-39.482-40.582-39.482c-22.413,0-40.582,17.677-40.582,39.482
				c0,0-5.85,66.515,31.442,69.36c0,0,28.517,2.846,36.561-20.63c4.534-13.232,6.744-23.073,7.81-29.142
				C387.622,183.705,389.575,177.022,389.575,169.891z"/>
			<path style="fill:#82450F;" d="M395.3,198.514c-1.216,7.576-6.566,13.017-11.949,12.153s-8.761-7.706-7.545-15.282
				c1.216-7.576,6.566-13.017,11.948-12.153C393.138,184.096,396.516,190.938,395.3,198.514z"/>
			<path style="opacity:0.32;fill:#223147;" d="M389.942,197.654c-0.548,3.411-2.956,5.861-5.38,5.472
				c-2.424-0.389-3.945-3.47-3.397-6.881c0.548-3.411,2.956-5.861,5.38-5.472C388.969,191.162,390.49,194.243,389.942,197.654z"/>
			<ellipse style="fill:#223147;" cx="315.627" cy="189.7" rx="2.691" ry="4.485"/>
			<path style="fill:#223147;" d="M346.427,191.494c0,2.477-1.205,4.486-2.691,4.486c-1.486,0-2.691-2.008-2.691-4.486
				c0-2.477,1.205-4.485,2.691-4.485C345.222,187.009,346.427,189.017,346.427,191.494z"/>
			<g style="opacity:0.35;">
				<path style="fill:#223147;" d="M327.618,208.399c-3.535,0.001-6.238-2.656-6.371-2.789l-0.219-0.219l3.683-11.659l0.972,0.307
					l-3.491,11.053c0.819,0.712,3.779,2.993,7.05,2.059l0.281,0.981C328.868,208.319,328.231,208.399,327.618,208.399z"/>
			</g>
			<path style="fill:#223147;" d="M377.876,249.286c0,0-27.141,11.915-42.41,2.153l-16.407,152.2l35.287,3.351L377.876,249.286z"/>
			<path style="fill:#223147;" d="M394.286,170.303l-2.582,14.633c0,0-19.562,5.863-18.819,24.45l-0.118-38.222L394.286,170.303z"/>
			<path style="fill:#223147;" d="M353.831,176.329c0,0-11.19-2.582-16.354,0l1.721,5.164l15.493,0.861
				C354.692,182.354,356.414,177.189,353.831,176.329z"/>
			<path style="fill:#223147;" d="M320.09,175.468c0,0-8.127-2.582-11.878,0l1.25,5.165l11.253,0.861
				C320.715,181.493,321.965,176.329,320.09,175.468z"/>
			<path style="fill:#FFFFFF;" d="M321.984,215.923l15.493-0.861c0,0-1.721,6.886-8.608,7.747
				C328.87,222.809,323.705,221.948,321.984,215.923z"/>
			<g>
				<g>
					<path style="fill:#FCE649;" d="M404.429,348.922c-3.415-14.798,1.908-88.241,1.908-88.241l-28.008-13.067
						c-7.227,3.726-15.255,6.065-23.3,6.85c-3.793,28.974-22.36,177.716-0.685,180.967c22.766,3.415,64.882-19.351,64.882-19.351
						S407.844,363.72,404.429,348.922z"/>
				</g>
				<path style="fill:#FCE649;" d="M328.821,248.084l-27.495,176.14c3.443,5.164,22.379,6.886,22.379,6.886l21.242-176.734
					C339.028,253.577,333.594,251.413,328.821,248.084z"/>
				<path style="fill:#FFFFFF;" d="M377.826,247.876c-3.679,1.854-7.56,3.346-11.54,4.465
					c-3.847,27.922-3.848,135.731-3.848,135.731l12.911-0.861C367.074,353.28,377.046,255.367,377.826,247.876z"/>
				<path style="fill:#FFFFFF;" d="M328.828,248.089l-17.173,131.376l7.747,1.722l15.812-129.524
					C332.975,250.69,330.843,249.493,328.828,248.089z"/>
				<path style="fill:#FFFFFF;" d="M414.084,393.236c0,0-56.809,15.493-69.72,9.468l-1.721-12.911l68.86-9.468L414.084,393.236z"/>
				<polygon style="fill:#FFFFFF;" points="329.288,383.418 328.075,397.378 305.126,392.73 306.424,379.627 				"/>
			</g>
			<path style="fill:#82450F;" d="M415.812,281.764c0,0,48.703,72.938,31.629,86.598c-17.074,13.659-32.767-2.365-54.395-60.417
				C393.046,307.944,405.568,273.796,415.812,281.764z"/>
			<path style="fill:#223147;" d="M403.291,257.86c0,0,22.766,1.138,36.425,43.255l-46.67,22.766
				C393.046,323.88,364.589,268.104,403.291,257.86z"/>
			<path style="fill:#82450F;" d="M435.448,339.116c0,0-35.79,12.503-68.593,32.127l10.326,18.436l68.896-16.998
				C446.077,372.681,463.616,355.354,435.448,339.116z"/>
			<g style="opacity:0.5;">
				
					<rect x="388.393" y="305.221" transform="matrix(0.904 -0.4276 0.4276 0.904 -90.9833 206.4036)" style="fill:#FFFFFF;" width="51.342" height="1.108"/>
			</g>
			<g style="opacity:0.5;">
				<path style="fill:#FFFFFF;" d="M411.614,294.006c-2.521,0-5.151-0.587-7.844-1.765c-4.924-2.154-8.272-5.47-8.412-5.611
					l0.783-0.783c0.033,0.032,3.361,3.326,8.101,5.391c6.272,2.733,11.923,2.137,16.804-1.769l0.692,0.865
					C418.684,292.776,415.261,294.006,411.614,294.006z"/>
			</g>
			<g style="opacity:0.33;">
				
					<rect x="305.13" y="269.627" transform="matrix(0.7104 -0.7038 0.7038 0.7104 -115.2797 298.9789)" style="fill:#FFFFFF;" width="1.107" height="39.904"/>
			</g>
			<g style="opacity:0.6;">
				<path style="fill:#223147;" d="M427.641,351.983c-5.918-4.303-15.776-2.727-15.876-2.71l-0.182-1.092
					c0.422-0.069,10.413-1.672,16.708,2.907L427.641,351.983z"/>
			</g>
			<g>
				<path style="fill:#FD6C6B;" d="M287.454,171.401h107.504c2.552,0,4.641-2.088,4.641-4.641l0,0c0-2.552-2.088-4.641-4.641-4.641
					H287.454c-2.552,0-4.641,2.088-4.641,4.641l0,0C282.814,169.313,284.902,171.401,287.454,171.401z"/>
				<path style="fill:#FD6C6B;" d="M306.322,165.368c-0.195-1.574-0.306-3.172-0.306-4.794c0-23.066,20.257-41.764,45.245-41.764
					c24.988,0,45.245,18.699,45.245,41.764c0,1.622-0.111,3.22-0.306,4.794H306.322z"/>
				<g style="opacity:0.35;">
					<path style="fill:#223147;" d="M354.741,148.428c1.408,0,2.55-1.141,2.55-2.55c0-17.447,14.838-19.057,15.471-19.117
						c1.397-0.133,2.43-1.371,2.302-2.77c-0.126-1.399-1.363-2.427-2.755-2.31c-6.958,0.605-20.117,6.441-20.117,24.196
						C352.191,147.287,353.332,148.428,354.741,148.428z"/>
				</g>
				<g>
					<path style="opacity:0.35;fill:#223147;" d="M339.273,145.334c1.408,0,2.55-1.141,2.55-2.549
						c0-17.448,14.837-19.056,15.47-19.116c1.397-0.132,2.43-1.371,2.302-2.77c-0.126-1.399-1.359-2.43-2.755-2.31
						c-6.957,0.605-20.116,6.441-20.116,24.195C336.724,144.193,337.865,145.334,339.273,145.334z"/>
				</g>
				<g>
					<path style="opacity:0.35;fill:#223147;" d="M320.711,146.882c1.408,0,2.549-1.141,2.549-2.55
						c0-17.448,14.837-19.057,15.47-19.117c1.397-0.132,2.43-1.371,2.303-2.77c-0.126-1.399-1.359-2.424-2.755-2.31
						c-6.958,0.605-20.117,6.441-20.117,24.196C318.162,145.74,319.303,146.882,320.711,146.882z"/>
				</g>
				<g style="opacity:0.6;">
					<rect x="306.016" y="160.064" style="fill:#223147;" width="90.489" height="1.02"/>
				</g>
			</g>
			<g>
				<path style="fill:#155897;" d="M328.079,366.234l-12.992-41.515c0,0,12.992-20.758,22.441-12.21l40.157,119.662
					c0,0-12.992,7.326-22.441,7.326L328.079,366.234z"/>
				<g>
					<path style="fill:#FFFFFF;" d="M317.956,325.558c-1.806,0-2.923-0.282-3-0.303l0.261-1.074
						c0.121,0.034,12.189,2.942,21.866-11.981l0.89,0.616c-5.272,8.13-11.227,11.083-15.294,12.129
						C320.845,325.418,319.229,325.558,317.956,325.558z"/>
				</g>
				<g>
					<path style="fill:#FFFFFF;" d="M324.12,321.397l-0.5-0.98c0.063-0.035,6.347-3.489,7.65-6.634l0.984,0.437
						C330.802,317.724,324.392,321.249,324.12,321.397z"/>
				</g>
				<g>
					<polygon style="fill:#FFFFFF;" points="361.612,439.087 324.576,324.22 325.592,323.87 362.628,438.737 					"/>
				</g>
			</g>
			<path style="fill:#82450F;" d="M372.348,368.389c-0.23,0.128-5.669-0.489-5.904-0.34c0,0-13.431-17.095-18.316-9.768
				c-4.884,7.326-9.768,9.768-17.095,7.326c-7.326-2.442-6.003,19.07,3.663,28.084c6.445,6.01,35.279-0.903,48.326-5.077
				C379.813,381.362,374.548,376.008,372.348,368.389z"/>
			<polygon style="fill:#223147;" points="370.134,368.134 379.229,389.734 384.914,388.37 375.819,366.088 			"/>
			<g>
				
					<ellipse transform="matrix(0.7071 -0.7071 0.7071 0.7071 -156.4236 377.6774)" style="fill:#223147;" cx="377.685" cy="377.659" rx="9.27" ry="9.27"/>
				<circle style="fill:#FFFFFF;" cx="377.685" cy="377.659" r="7.49"/>
				<g>
					<polygon style="fill:#223147;" points="373.646,379.589 373.296,378.537 376.968,377.314 375.199,372.513 376.238,372.13 
						378.402,378.004 					"/>
				</g>
			</g>
			<path style="fill:#82450F;" d="M303.777,325.284c0,0-22.779-30.305-51.436-55.601l-14.431,15.436l37.112,60.483
				C275.022,345.602,296.857,357.052,303.777,325.284z"/>
			<g style="opacity:0.46;">
				<path style="fill:#223147;" d="M294.217,318.786c-0.381-7.315-7.812-13.974-7.888-14.041l0.734-0.829
					c0.32,0.283,7.854,7.039,8.26,14.812L294.217,318.786z"/>
			</g>
			<path style="fill:#82450F;" d="M237.91,285.118c0,0-11.657-12.543-7.891-33.257c0,0,18.203-6.904,21.341-3.766
				s6.904,25.107,4.394,29.501S240.78,289.502,237.91,285.118z"/>
			<path style="fill:#82450F;" d="M255.126,273.203c0,0,6.905-3.766,5.649-13.809c-1.255-10.043-5.021-23.224-5.021-23.224
				s-9.415-3.138-5.021,16.948C255.126,273.203,255.126,273.203,255.126,273.203z"/>
			<path style="opacity:0.56;fill:#223147;" d="M253.637,266.508c0.57-0.526,0.94-1.084,1.095-1.676
				c0.462-1.757-1.026-3.232-1.874-3.907c0.415-0.346,0.7-0.774,0.836-1.29c0.473-1.796-0.97-4.13-1.599-5.034
				c2.791-2.009-0.12-6.572-0.252-6.775l-0.968,0.46c0.029,0.044,2.848,4.438,0.199,5.794c-2.996,1.534-15.338,2.603-15.462,2.614
				l0.11,0.94c0.494-0.041,11.643-1.008,15.435-2.527c0.565,0.818,1.839,2.876,1.457,4.323c-0.125,0.476-0.424,0.829-0.912,1.079
				c-3,1.537-13.483,2.604-13.589,2.615l0.13,0.938c0.426-0.042,10.14-1.036,13.674-2.585c0.617,0.46,2.108,1.739,1.733,3.153
				c-0.115,0.434-0.418,0.923-1.038,1.435c-0.041-0.014-0.073-0.024-0.083-0.027l-0.059,0.138
				c-1.467,1.135-4.524,2.372-10.632,3.381l0.211,0.929c5.091-0.841,8.668-1.949,10.718-3.307c0.722,0.334,1.825,0.996,1.873,1.96
				c0.049,1.003-1.076,3.161-9.162,6.347l0.464,0.858c6.707-2.642,9.914-5.012,9.805-7.245
				C255.685,267.83,254.544,266.984,253.637,266.508z"/>
		</g>
	</g>
</g>
</svg>
